<svg width="97" height="93" viewBox="0 0 97 93" fill="none" xmlns="http://www.w3.org/2000/svg">
<path d="M49.6779 0.203882L46.5217 1.07337L7.63652 11.7856L4.48031 12.6551C2.94832 13.0791 1.63634 14.135 0.832182 15.5911C0.0280291 17.0471 -0.202617 18.7845 0.190846 20.4221L13.8769 77.1164C14.2738 78.7529 15.2622 80.1545 16.6252 81.0135C17.9882 81.8726 19.6146 82.119 21.1475 81.6987L21.1556 81.6964L66.3369 69.2497L66.345 69.2474C67.877 68.8234 69.189 67.7676 69.9931 66.3115C70.7973 64.8554 71.0279 63.118 70.6345 61.4805L56.9485 4.7862C56.5516 3.14963 55.5632 1.74807 54.2001 0.889015C52.8371 0.0299586 51.2107 -0.216438 49.6779 0.203882Z" fill="#F2F2F2"/>
<path d="M50.1061 1.98028L46.3677 3.01013L8.64671 13.4017L4.90846 14.4315C3.81749 14.7335 2.88319 15.4854 2.31053 16.5223C1.73787 17.5592 1.57362 18.7964 1.85381 19.9625L15.5398 76.6568C15.8225 77.8223 16.5263 78.8204 17.497 79.4321C18.4676 80.0439 19.6258 80.2193 20.7174 79.92L20.7255 79.9178L65.9068 67.471L65.915 67.4688C67.0059 67.1668 67.9402 66.4149 68.5129 65.378C69.0855 64.3411 69.2498 63.1039 68.9696 61.9378L55.2836 5.24346C55.0009 4.07803 54.2971 3.07996 53.3264 2.4682C52.3558 1.85645 51.1976 1.68098 50.1061 1.98028Z" fill="white"/>
<path d="M47.2834 20.3394L24.4273 26.6359C24.172 26.7062 23.901 26.6653 23.6739 26.5222C23.4469 26.3791 23.2823 26.1455 23.2165 25.8728C23.1507 25.6001 23.189 25.3106 23.3229 25.0681C23.4569 24.8255 23.6755 24.6497 23.9308 24.5794L46.7869 18.2829C47.0421 18.2129 47.3129 18.2539 47.5398 18.397C47.7666 18.5402 47.931 18.7737 47.9968 19.0462C48.0626 19.3188 48.0244 19.6081 47.8906 19.8506C47.7569 20.093 47.5384 20.2689 47.2834 20.3394Z" fill="#F2F2F2"/>
<path d="M52.0914 22.7159L25.2648 30.1062C25.0096 30.1765 24.7386 30.1356 24.5115 29.9925C24.2845 29.8494 24.1199 29.6158 24.0541 29.3431C23.9883 29.0704 24.0265 28.7809 24.1605 28.5384C24.2944 28.2958 24.5131 28.12 24.7684 28.0497L51.5949 20.6594C51.8502 20.5891 52.1212 20.63 52.3483 20.7731C52.5753 20.9162 52.7399 21.1498 52.8057 21.4225C52.8715 21.6952 52.8333 21.9847 52.6993 22.2272C52.5653 22.4698 52.3467 22.6456 52.0914 22.7159Z" fill="#F2F2F2"/>
<path d="M51.0376 35.8915L28.1815 42.188C28.0551 42.2228 27.9236 42.2307 27.7943 42.2112C27.6651 42.1917 27.5407 42.1452 27.4282 42.0743C27.3158 42.0035 27.2175 41.9097 27.1391 41.7982C27.0606 41.6868 27.0034 41.56 26.9708 41.4249C26.9382 41.2899 26.9308 41.1493 26.9491 41.0113C26.9673 40.8732 27.0109 40.7403 27.0772 40.6202C27.1435 40.5001 27.2314 40.3951 27.3357 40.3113C27.44 40.2274 27.5587 40.1664 27.6851 40.1315L50.5412 33.835C50.6676 33.8002 50.7992 33.7923 50.9284 33.8118C51.0577 33.8313 51.1821 33.8778 51.2945 33.9487C51.407 34.0196 51.5052 34.1134 51.5837 34.2248C51.6622 34.3362 51.7194 34.4631 51.752 34.5981C51.7846 34.7331 51.7919 34.8737 51.7737 35.0118C51.7554 35.1499 51.7119 35.2827 51.6456 35.4029C51.5792 35.523 51.4914 35.6279 51.3871 35.7118C51.2828 35.7956 51.164 35.8567 51.0376 35.8915Z" fill="#F2F2F2"/>
<path d="M55.8457 38.268L29.0191 45.6583C28.8927 45.6932 28.7612 45.7011 28.6319 45.6815C28.5026 45.662 28.3783 45.6155 28.2658 45.5447C28.1534 45.4738 28.0551 45.38 27.9766 45.2686C27.8982 45.1571 27.841 45.0303 27.8084 44.8953C27.7758 44.7602 27.7684 44.6197 27.7867 44.4816C27.8049 44.3435 27.8485 44.2106 27.9148 44.0905C27.9811 43.9704 28.0689 43.8655 28.1733 43.7816C28.2776 43.6978 28.3963 43.6367 28.5227 43.6019L55.3493 36.2116C55.6045 36.1412 55.8755 36.1821 56.1026 36.3252C56.3296 36.4683 56.4942 36.7019 56.56 36.9746C56.6258 37.2473 56.5876 37.5368 56.4536 37.7794C56.3196 38.0219 56.101 38.1977 55.8457 38.268Z" fill="#F2F2F2"/>
<path d="M54.7918 51.4437L31.9357 57.7402C31.6805 57.8103 31.4097 57.7693 31.1828 57.6261C30.9559 57.483 30.7914 57.2495 30.7256 56.9769C30.6598 56.7043 30.698 56.415 30.8319 56.1725C30.9657 55.93 31.1842 55.7542 31.4393 55.6837L54.2954 49.3872C54.5507 49.3169 54.8216 49.3578 55.0487 49.5009C55.2757 49.644 55.4403 49.8776 55.5061 50.1503C55.572 50.423 55.5337 50.7124 55.3997 50.955C55.2658 51.1976 55.0471 51.3733 54.7918 51.4437Z" fill="#F2F2F2"/>
<path d="M59.6 53.8202L32.7734 61.2105C32.647 61.2454 32.5153 61.2534 32.386 61.234C32.2567 61.2146 32.1322 61.1681 32.0197 61.0973C31.9071 61.0264 31.8088 60.9326 31.7302 60.8211C31.6517 60.7096 31.5945 60.5827 31.5618 60.4476C31.5292 60.3125 31.5219 60.1719 31.5402 60.0337C31.5584 59.8956 31.6021 59.7626 31.6685 59.6425C31.7349 59.5223 31.8228 59.4174 31.9272 59.3335C32.0317 59.2497 32.1505 59.1887 32.277 59.154L59.1036 51.7637C59.3588 51.6934 59.6298 51.7342 59.8569 51.8774C60.0839 52.0205 60.2485 52.2541 60.3143 52.5268C60.3801 52.7995 60.3419 53.0889 60.2079 53.3315C60.0739 53.5741 59.8553 53.7498 59.6 53.8202Z" fill="#F2F2F2"/>
<path d="M20.5253 33.092L12.4367 35.3203C12.3143 35.3539 12.1845 35.3342 12.0756 35.2656C11.9668 35.197 11.8879 35.0851 11.8562 34.9544L9.99947 27.2629C9.96805 27.1322 9.98646 26.9935 10.0507 26.8772C10.1149 26.7609 10.2197 26.6766 10.342 26.6428L18.4305 24.4145C18.5529 24.3809 18.6828 24.4006 18.7916 24.4692C18.9005 24.5378 18.9794 24.6497 19.0111 24.7804L20.8678 32.4718C20.8992 32.6026 20.8808 32.7413 20.8166 32.8576C20.7524 32.9739 20.6476 33.0582 20.5253 33.092Z" fill="#E6E6E6"/>
<path d="M24.2796 48.6442L16.191 50.8724C16.0686 50.906 15.9387 50.8863 15.8299 50.8177C15.721 50.7491 15.6421 50.6372 15.6104 50.5065L13.7537 42.8151C13.7223 42.6843 13.7407 42.5456 13.8049 42.4293C13.8691 42.3131 13.9739 42.2288 14.0962 42.1949L22.1848 39.9666C22.3072 39.9331 22.4371 39.9527 22.5459 40.0213C22.6547 40.0899 22.7337 40.2018 22.7653 40.3325L24.6221 48.024C24.6535 48.1547 24.6351 48.2935 24.5709 48.4097C24.5066 48.526 24.4019 48.6103 24.2796 48.6442Z" fill="#E6E6E6"/>
<path d="M28.0339 64.1963L19.9453 66.4246C19.8229 66.4581 19.693 66.4385 19.5842 66.3699C19.4754 66.3013 19.3964 66.1894 19.3648 66.0587L17.508 58.3672C17.4766 58.2364 17.495 58.0977 17.5592 57.9815C17.6235 57.8652 17.7282 57.7809 17.8506 57.747L25.9391 55.5187C26.0615 55.4852 26.1914 55.5048 26.3002 55.5734C26.409 55.642 26.488 55.754 26.5197 55.8846L28.3764 63.5761C28.4078 63.7069 28.3894 63.8456 28.3252 63.9619C28.261 64.0781 28.1562 64.1624 28.0339 64.1963Z" fill="#E6E6E6"/>
<path d="M81.0934 13H34.9066C33.3406 13.0019 31.8392 13.6904 30.7319 14.9143C29.6246 16.1382 29.0018 17.7976 29 19.5285V79.4715C29.0018 81.2024 29.6246 82.8618 30.7319 84.0857C31.8392 85.3096 33.3406 85.9981 34.9066 86H81.0934C82.6594 85.9981 84.1608 85.3096 85.2681 84.0857C86.3754 82.8618 86.9982 81.2024 87 79.4715V19.5285C86.9982 17.7976 86.3754 16.1382 85.2681 14.9143C84.1608 13.6904 82.6594 13.0019 81.0934 13Z" fill="#E6E6E6"/>
<path d="M80.763 15H34.2371C33.1137 15.0014 32.0367 15.4899 31.2424 16.3585C30.4481 17.227 30.0013 18.4046 30 19.6329V79.3671C30.0013 80.5954 30.4481 81.773 31.2424 82.6415C32.0367 83.5101 33.1137 83.9986 34.2371 84H80.763C81.8863 83.9986 82.9633 83.5101 83.7576 82.6415C84.5519 81.773 84.9987 80.5954 85 79.3671V19.6329C84.9987 18.4046 84.5519 17.227 83.7576 16.3585C82.9633 15.4899 81.8863 15.0014 80.763 15Z" fill="white"/>
<path d="M85 93C91.6274 93 97 87.8513 97 81.5C97 75.1487 91.6274 70 85 70C78.3726 70 73 75.1487 73 81.5C73 87.8513 78.3726 93 85 93Z" fill="#6C63FF"/>
<path d="M89.8439 80.5671H86.0539V76.5183C86.0539 76.1156 85.9041 75.7294 85.6376 75.4447C85.3711 75.16 85.0096 75 84.6326 75C84.2557 75 83.8942 75.16 83.6276 75.4447C83.3611 75.7294 83.2113 76.1156 83.2113 76.5183V80.5671H79.4213C79.0443 80.5671 78.6828 80.7271 78.4163 81.0118C78.1497 81.2965 78 81.6827 78 82.0854C78 82.4881 78.1497 82.8743 78.4163 83.159C78.6828 83.4437 79.0443 83.6037 79.4213 83.6037H83.2113V87.6525C83.2113 88.0552 83.3611 88.4413 83.6276 88.7261C83.8942 89.0108 84.2557 89.1708 84.6326 89.1708C85.0096 89.1708 85.3711 89.0108 85.6376 88.7261C85.9041 88.4413 86.0539 88.0552 86.0539 87.6525V83.6037H89.8439C90.2209 83.6037 90.5824 83.4437 90.8489 83.159C91.1155 82.8743 91.2652 82.4881 91.2652 82.0854C91.2652 81.6827 91.1155 81.2965 90.8489 81.0118C90.5824 80.7271 90.2209 80.5671 89.8439 80.5671Z" fill="white"/>
<path d="M74.175 48.5823H50.5711C50.4405 48.5825 50.3111 48.5551 50.1904 48.5018C50.0697 48.4485 49.96 48.3704 49.8676 48.2717C49.7751 48.1731 49.7018 48.056 49.6518 47.9271C49.6018 47.7982 49.576 47.66 49.576 47.5204C49.576 47.3809 49.6018 47.2427 49.6518 47.1138C49.7018 46.9849 49.7751 46.8678 49.8676 46.7692C49.96 46.6705 50.0697 46.5923 50.1904 46.539C50.3111 46.4858 50.4405 46.4584 50.5711 46.4586H74.175C74.4384 46.4589 74.691 46.5709 74.8772 46.77C75.0633 46.9691 75.1679 47.239 75.1679 47.5204C75.1679 47.8019 75.0633 48.0718 74.8772 48.2709C74.691 48.47 74.4384 48.582 74.175 48.5823Z" fill="#E6E6E6"/>
<path d="M78.2753 52.1662H50.5711C50.4405 52.1663 50.3111 52.139 50.1904 52.0857C50.0697 52.0324 49.96 51.9542 49.8676 51.8556C49.7751 51.757 49.7018 51.6398 49.6518 51.5109C49.6018 51.382 49.576 51.2438 49.576 51.1043C49.576 50.9647 49.6018 50.8266 49.6518 50.6977C49.7018 50.5687 49.7751 50.4516 49.8676 50.353C49.96 50.2544 50.0697 50.1762 50.1904 50.1229C50.3111 50.0696 50.4405 50.0423 50.5711 50.0424H78.2753C78.539 50.0424 78.7918 50.1543 78.9782 50.3534C79.1646 50.5526 79.2694 50.8227 79.2694 51.1043C79.2694 51.3859 79.1646 51.656 78.9782 51.8552C78.7918 52.0543 78.539 52.1662 78.2753 52.1662Z" fill="#E6E6E6"/>
<path d="M74.175 64.6433H50.5711C50.4405 64.6434 50.3111 64.6161 50.1904 64.5628C50.0697 64.5095 49.96 64.4313 49.8676 64.3327C49.7751 64.2341 49.7018 64.1169 49.6518 63.988C49.6018 63.8591 49.576 63.7209 49.576 63.5814C49.576 63.4418 49.6018 63.3037 49.6518 63.1748C49.7018 63.0458 49.7751 62.9287 49.8676 62.8301C49.96 62.7315 50.0697 62.6533 50.1904 62.6C50.3111 62.5467 50.4405 62.5194 50.5711 62.5195H74.175C74.4386 62.5195 74.6915 62.6314 74.8779 62.8305C75.0643 63.0297 75.169 63.2998 75.169 63.5814C75.169 63.863 75.0643 64.1331 74.8779 64.3323C74.6915 64.5314 74.4386 64.6433 74.175 64.6433Z" fill="#E6E6E6"/>
<path d="M78.2754 68.2271H50.5711C50.4405 68.2273 50.3111 68.1999 50.1904 68.1466C50.0697 68.0933 49.96 68.0151 49.8676 67.9165C49.7751 67.8179 49.7018 67.7008 49.6518 67.5719C49.6018 67.443 49.576 67.3048 49.576 67.1652C49.576 67.0257 49.6018 66.8875 49.6518 66.7586C49.7018 66.6297 49.7751 66.5126 49.8676 66.4139C49.96 66.3153 50.0697 66.2371 50.1904 66.1838C50.3111 66.1305 50.4405 66.1032 50.5711 66.1033H78.2754C78.406 66.1032 78.5354 66.1305 78.6561 66.1838C78.7768 66.2371 78.8865 66.3153 78.9789 66.4139C79.0714 66.5126 79.1447 66.6297 79.1947 66.7586C79.2447 66.8875 79.2705 67.0257 79.2705 67.1652C79.2705 67.3048 79.2447 67.443 79.1947 67.5719C79.1447 67.7008 79.0714 67.8179 78.9789 67.9165C78.8865 68.0151 78.7768 68.0933 78.6561 68.1466C78.5354 68.1999 78.406 68.2273 78.2754 68.2271Z" fill="#E6E6E6"/>
<path d="M45.2839 53.7931H36.9307C36.8044 53.7929 36.6832 53.7392 36.5939 53.6438C36.5045 53.5483 36.4542 53.4189 36.4541 53.2839V45.3408C36.4542 45.2058 36.5045 45.0764 36.5939 44.9809C36.6832 44.8855 36.8044 44.8318 36.9307 44.8316H45.2839C45.4103 44.8318 45.5314 44.8855 45.6208 44.9809C45.7101 45.0764 45.7604 45.2058 45.7606 45.3408V53.2839C45.7604 53.4189 45.7101 53.5483 45.6208 53.6438C45.5314 53.7392 45.4103 53.7929 45.2839 53.7931Z" fill="#E6E6E6"/>
<path d="M45.2839 69.854H36.9307C36.8044 69.8539 36.6832 69.8002 36.5939 69.7047C36.5045 69.6093 36.4542 69.4799 36.4541 69.3449V61.4018C36.4542 61.2668 36.5045 61.1373 36.5939 61.0419C36.6832 60.9464 36.8044 60.8927 36.9307 60.8926H45.2839C45.4103 60.8927 45.5314 60.9464 45.6208 61.0419C45.7101 61.1373 45.7604 61.2668 45.7606 61.4018V69.3449C45.7604 69.4799 45.7101 69.6093 45.6208 69.7047C45.5314 69.8002 45.4103 69.8539 45.2839 69.854Z" fill="#E6E6E6"/>
<path d="M74.2013 30.7033H56.7991C56.5355 30.7033 56.2826 30.5914 56.0962 30.3923C55.9098 30.1932 55.8051 29.9231 55.8051 29.6414C55.8051 29.3598 55.9098 29.0897 56.0962 28.8906C56.2826 28.6914 56.5355 28.5796 56.7991 28.5796H74.2013C74.4649 28.5796 74.7177 28.6914 74.9041 28.8906C75.0905 29.0897 75.1953 29.3598 75.1953 29.6414C75.1953 29.9231 75.0905 30.1932 74.9041 30.3923C74.7177 30.5914 74.4649 30.7033 74.2013 30.7033Z" fill="#CCCCCC"/>
<path d="M78.3016 34.2872H56.7991C56.6686 34.2872 56.5393 34.2597 56.4187 34.2063C56.2981 34.153 56.1885 34.0748 56.0962 33.9762C56.0039 33.8776 55.9307 33.7605 55.8807 33.6317C55.8308 33.5028 55.8051 33.3647 55.8051 33.2253C55.8051 33.0858 55.8308 32.9478 55.8807 32.8189C55.9307 32.6901 56.0039 32.573 56.0962 32.4744C56.1885 32.3758 56.2981 32.2976 56.4187 32.2442C56.5393 32.1909 56.6686 32.1634 56.7991 32.1634H78.3016C78.5652 32.1634 78.8181 32.2753 79.0045 32.4744C79.1909 32.6736 79.2956 32.9437 79.2956 33.2253C79.2956 33.5069 79.1909 33.777 79.0045 33.9762C78.8181 34.1753 78.5652 34.2872 78.3016 34.2872Z" fill="#CCCCCC"/>
<path d="M52.9479 38.6304H36.9046C36.7782 38.6302 36.6571 38.5765 36.5677 38.4811C36.4784 38.3856 36.4281 38.2562 36.428 38.1212V24.7456C36.4281 24.6106 36.4784 24.4811 36.5677 24.3857C36.6571 24.2902 36.7782 24.2365 36.9046 24.2364H52.9479C53.0743 24.2365 53.1954 24.2902 53.2848 24.3857C53.3741 24.4811 53.4244 24.6106 53.4245 24.7456V38.1212C53.4244 38.2562 53.3741 38.3856 53.2848 38.4811C53.1954 38.5765 53.0743 38.6302 52.9479 38.6304Z" fill="#F2C94C"/>
</svg>
